<mxfile host="Electron" modified="2023-11-30T21:35:45.784Z" agent="Mozilla/5.0 (Windows NT 10.0; Win64; x64) AppleWebKit/537.36 (KHTML, like Gecko) draw.io/22.1.2 Chrome/114.0.5735.289 Electron/25.9.4 Safari/537.36" etag="7_t6gqaD6zN8Q-fzazfj" version="22.1.2" type="device">
  <diagram name="Страница — 1" id="rwYT0whXrhywnnauOBgW">
    <mxGraphModel dx="947" dy="1642" grid="1" gridSize="10" guides="1" tooltips="1" connect="1" arrows="1" fold="1" page="1" pageScale="1" pageWidth="827" pageHeight="1169" math="0" shadow="0">
      <root>
        <mxCell id="0" />
        <mxCell id="1" parent="0" />
        <mxCell id="iuXsz0ok0gPTvOmvIEcN-1" value="&amp;nbsp;Switchboards Facade" style="swimlane;fontStyle=0;childLayout=stackLayout;horizontal=1;startSize=26;fillColor=none;horizontalStack=0;resizeParent=1;resizeParentMax=0;resizeLast=0;collapsible=1;marginBottom=0;whiteSpace=wrap;html=1;" parent="1" vertex="1">
          <mxGeometry x="300" y="-1000" width="240" height="78" as="geometry" />
        </mxCell>
        <mxCell id="iuXsz0ok0gPTvOmvIEcN-63" value="- electricity:Electricity[ ]" style="text;strokeColor=none;fillColor=none;align=left;verticalAlign=top;spacingLeft=4;spacingRight=4;overflow=hidden;rotatable=0;points=[[0,0.5],[1,0.5]];portConstraint=eastwest;whiteSpace=wrap;html=1;" parent="iuXsz0ok0gPTvOmvIEcN-1" vertex="1">
          <mxGeometry y="26" width="240" height="26" as="geometry" />
        </mxCell>
        <mxCell id="iuXsz0ok0gPTvOmvIEcN-32" value="+&amp;nbsp; void selectElectricity(boolean)&amp;nbsp;" style="text;strokeColor=none;fillColor=none;align=left;verticalAlign=top;spacingLeft=4;spacingRight=4;overflow=hidden;rotatable=0;points=[[0,0.5],[1,0.5]];portConstraint=eastwest;whiteSpace=wrap;html=1;" parent="iuXsz0ok0gPTvOmvIEcN-1" vertex="1">
          <mxGeometry y="52" width="240" height="26" as="geometry" />
        </mxCell>
        <mxCell id="iuXsz0ok0gPTvOmvIEcN-6" value="&lt;h1 style=&quot;border-color: var(--border-color); color: rgb(0, 0, 0); font-family: Helvetica; font-style: normal; font-variant-ligatures: normal; font-variant-caps: normal; letter-spacing: normal; orphans: 2; text-indent: 0px; text-transform: none; widows: 2; word-spacing: 0px; -webkit-text-stroke-width: 0px; background-color: rgb(251, 251, 251); text-decoration-thickness: initial; text-decoration-style: initial; text-decoration-color: initial;&quot;&gt;Шаблон Facade&lt;/h1&gt;&lt;div style=&quot;&quot;&gt;Диаграмма паттерна проектированя Facade (на примере простого электрического щитка&lt;/div&gt;&lt;div style=&quot;&quot;&gt;в квартире)&lt;/div&gt;" style="text;whiteSpace=wrap;html=1;align=center;" parent="1" vertex="1">
          <mxGeometry x="30" y="-1150" width="260" height="140" as="geometry" />
        </mxCell>
        <mxCell id="iuXsz0ok0gPTvOmvIEcN-9" value="LightApartment" style="swimlane;fontStyle=1;align=center;verticalAlign=top;childLayout=stackLayout;horizontal=1;startSize=26;horizontalStack=0;resizeParent=1;resizeParentMax=0;resizeLast=0;collapsible=1;marginBottom=0;whiteSpace=wrap;html=1;" parent="1" vertex="1">
          <mxGeometry x="34" y="-670" width="160" height="50" as="geometry" />
        </mxCell>
        <mxCell id="iuXsz0ok0gPTvOmvIEcN-13" value="PowerSocket" style="swimlane;fontStyle=1;align=center;verticalAlign=top;childLayout=stackLayout;horizontal=1;startSize=26;horizontalStack=0;resizeParent=1;resizeParentMax=0;resizeLast=0;collapsible=1;marginBottom=0;whiteSpace=wrap;html=1;" parent="1" vertex="1">
          <mxGeometry x="234" y="-670" width="160" height="50" as="geometry" />
        </mxCell>
        <mxCell id="iuXsz0ok0gPTvOmvIEcN-21" value="KitchenAppliances" style="swimlane;fontStyle=1;align=center;verticalAlign=top;childLayout=stackLayout;horizontal=1;startSize=26;horizontalStack=0;resizeParent=1;resizeParentMax=0;resizeLast=0;collapsible=1;marginBottom=0;whiteSpace=wrap;html=1;" parent="1" vertex="1">
          <mxGeometry x="634" y="-670" width="160" height="50" as="geometry" />
        </mxCell>
        <mxCell id="iuXsz0ok0gPTvOmvIEcN-25" value="Client" style="swimlane;fontStyle=1;align=center;verticalAlign=top;childLayout=stackLayout;horizontal=1;startSize=26;horizontalStack=0;resizeParent=1;resizeParentMax=0;resizeLast=0;collapsible=1;marginBottom=0;whiteSpace=wrap;html=1;" parent="1" vertex="1">
          <mxGeometry x="320" y="-1120" width="200" height="52" as="geometry" />
        </mxCell>
        <mxCell id="iuXsz0ok0gPTvOmvIEcN-28" value="+ void Switchboards(boolean)" style="text;strokeColor=none;fillColor=none;align=left;verticalAlign=top;spacingLeft=4;spacingRight=4;overflow=hidden;rotatable=0;points=[[0,0.5],[1,0.5]];portConstraint=eastwest;whiteSpace=wrap;html=1;" parent="iuXsz0ok0gPTvOmvIEcN-25" vertex="1">
          <mxGeometry y="26" width="200" height="26" as="geometry" />
        </mxCell>
        <mxCell id="iuXsz0ok0gPTvOmvIEcN-33" value="BathroomLight" style="swimlane;fontStyle=1;align=center;verticalAlign=top;childLayout=stackLayout;horizontal=1;startSize=26;horizontalStack=0;resizeParent=1;resizeParentMax=0;resizeLast=0;collapsible=1;marginBottom=0;whiteSpace=wrap;html=1;" parent="1" vertex="1">
          <mxGeometry x="434" y="-670" width="160" height="50" as="geometry" />
        </mxCell>
        <mxCell id="iuXsz0ok0gPTvOmvIEcN-37" value="Electricity" style="swimlane;fontStyle=1;align=center;verticalAlign=top;childLayout=stackLayout;horizontal=1;startSize=26;horizontalStack=0;resizeParent=1;resizeParentMax=0;resizeLast=0;collapsible=1;marginBottom=0;whiteSpace=wrap;html=1;" parent="1" vertex="1">
          <mxGeometry x="320" y="-820" width="200" height="86" as="geometry" />
        </mxCell>
        <mxCell id="iuXsz0ok0gPTvOmvIEcN-38" value="- condition&lt;span style=&quot;background-color: initial;&quot;&gt;: boolean&lt;/span&gt;" style="text;strokeColor=none;fillColor=none;align=left;verticalAlign=top;spacingLeft=4;spacingRight=4;overflow=hidden;rotatable=0;points=[[0,0.5],[1,0.5]];portConstraint=eastwest;whiteSpace=wrap;html=1;" parent="iuXsz0ok0gPTvOmvIEcN-37" vertex="1">
          <mxGeometry y="26" width="200" height="26" as="geometry" />
        </mxCell>
        <mxCell id="iuXsz0ok0gPTvOmvIEcN-39" value="" style="line;strokeWidth=1;fillColor=none;align=left;verticalAlign=middle;spacingTop=-1;spacingLeft=3;spacingRight=3;rotatable=0;labelPosition=right;points=[];portConstraint=eastwest;strokeColor=inherit;" parent="iuXsz0ok0gPTvOmvIEcN-37" vertex="1">
          <mxGeometry y="52" width="200" height="8" as="geometry" />
        </mxCell>
        <mxCell id="iuXsz0ok0gPTvOmvIEcN-40" value="+select(boolean): boolean" style="text;strokeColor=none;fillColor=none;align=left;verticalAlign=top;spacingLeft=4;spacingRight=4;overflow=hidden;rotatable=0;points=[[0,0.5],[1,0.5]];portConstraint=eastwest;whiteSpace=wrap;html=1;" parent="iuXsz0ok0gPTvOmvIEcN-37" vertex="1">
          <mxGeometry y="60" width="200" height="26" as="geometry" />
        </mxCell>
        <mxCell id="iuXsz0ok0gPTvOmvIEcN-42" value="Extends" style="endArrow=block;endSize=16;endFill=0;html=1;rounded=0;exitX=0.544;exitY=0;exitDx=0;exitDy=0;exitPerimeter=0;entryX=-0.002;entryY=0.844;entryDx=0;entryDy=0;entryPerimeter=0;" parent="1" source="iuXsz0ok0gPTvOmvIEcN-9" target="iuXsz0ok0gPTvOmvIEcN-38" edge="1">
          <mxGeometry width="160" relative="1" as="geometry">
            <mxPoint x="160" y="-764.5" as="sourcePoint" />
            <mxPoint x="310" y="-772" as="targetPoint" />
            <Array as="points">
              <mxPoint x="121" y="-770" />
            </Array>
          </mxGeometry>
        </mxCell>
        <mxCell id="iuXsz0ok0gPTvOmvIEcN-43" value="Extends" style="endArrow=block;endSize=16;endFill=0;html=1;rounded=0;exitX=0.5;exitY=0;exitDx=0;exitDy=0;" parent="1" source="iuXsz0ok0gPTvOmvIEcN-21" edge="1">
          <mxGeometry width="160" relative="1" as="geometry">
            <mxPoint x="560" y="-780" as="sourcePoint" />
            <mxPoint x="520" y="-770" as="targetPoint" />
            <Array as="points">
              <mxPoint x="714" y="-770" />
            </Array>
          </mxGeometry>
        </mxCell>
        <mxCell id="iuXsz0ok0gPTvOmvIEcN-44" value="Extends" style="endArrow=block;endSize=16;endFill=0;html=1;rounded=0;entryX=0.15;entryY=1.057;entryDx=0;entryDy=0;entryPerimeter=0;exitX=0.722;exitY=-0.022;exitDx=0;exitDy=0;exitPerimeter=0;" parent="1" edge="1" target="iuXsz0ok0gPTvOmvIEcN-40" source="iuXsz0ok0gPTvOmvIEcN-13">
          <mxGeometry width="160" relative="1" as="geometry">
            <mxPoint x="280" y="-670" as="sourcePoint" />
            <mxPoint x="320" y="-740" as="targetPoint" />
            <Array as="points">
              <mxPoint x="350" y="-700" />
            </Array>
          </mxGeometry>
        </mxCell>
        <mxCell id="iuXsz0ok0gPTvOmvIEcN-45" value="Extends" style="endArrow=block;endSize=16;endFill=0;html=1;rounded=0;entryX=0.795;entryY=1.02;entryDx=0;entryDy=0;entryPerimeter=0;" parent="1" target="iuXsz0ok0gPTvOmvIEcN-40" edge="1">
          <mxGeometry width="160" relative="1" as="geometry">
            <mxPoint x="480" y="-670" as="sourcePoint" />
            <mxPoint x="680" y="-720" as="targetPoint" />
            <Array as="points">
              <mxPoint x="480" y="-680" />
            </Array>
          </mxGeometry>
        </mxCell>
        <mxCell id="iuXsz0ok0gPTvOmvIEcN-48" value="&lt;font style=&quot;font-size: 11px;&quot;&gt;&lt;b&gt;&amp;lt;&amp;lt;Interface&amp;gt;&amp;gt;&lt;br&gt;ElectricityStatus&lt;/b&gt;&lt;/font&gt;" style="swimlane;fontStyle=0;childLayout=stackLayout;horizontal=1;startSize=26;fillColor=none;horizontalStack=0;resizeParent=1;resizeParentMax=0;resizeLast=0;collapsible=1;marginBottom=0;whiteSpace=wrap;html=1;" parent="1" vertex="1">
          <mxGeometry x="34" y="-872" width="200" height="52" as="geometry">
            <mxRectangle x="320" y="-600" width="120" height="40" as="alternateBounds" />
          </mxGeometry>
        </mxCell>
        <mxCell id="iuXsz0ok0gPTvOmvIEcN-49" value="+ void status()" style="text;strokeColor=none;fillColor=none;align=left;verticalAlign=top;spacingLeft=4;spacingRight=4;overflow=hidden;rotatable=0;points=[[0,0.5],[1,0.5]];portConstraint=eastwest;whiteSpace=wrap;html=1;" parent="iuXsz0ok0gPTvOmvIEcN-48" vertex="1">
          <mxGeometry y="26" width="200" height="26" as="geometry" />
        </mxCell>
        <mxCell id="iuXsz0ok0gPTvOmvIEcN-55" value="" style="endArrow=block;dashed=1;endFill=0;endSize=12;html=1;rounded=0;exitX=0.25;exitY=0;exitDx=0;exitDy=0;entryX=0.997;entryY=0.429;entryDx=0;entryDy=0;entryPerimeter=0;" parent="1" source="iuXsz0ok0gPTvOmvIEcN-37" target="iuXsz0ok0gPTvOmvIEcN-48" edge="1">
          <mxGeometry width="160" relative="1" as="geometry">
            <mxPoint x="394" y="-570" as="sourcePoint" />
            <mxPoint x="240" y="-850" as="targetPoint" />
            <Array as="points">
              <mxPoint x="370" y="-850" />
            </Array>
          </mxGeometry>
        </mxCell>
        <mxCell id="iuXsz0ok0gPTvOmvIEcN-56" value="Use" style="endArrow=open;endSize=12;dashed=1;html=1;rounded=0;exitX=0.497;exitY=1.025;exitDx=0;exitDy=0;exitPerimeter=0;" parent="1" source="iuXsz0ok0gPTvOmvIEcN-28" target="iuXsz0ok0gPTvOmvIEcN-1" edge="1">
          <mxGeometry width="160" relative="1" as="geometry">
            <mxPoint x="394" y="-1030" as="sourcePoint" />
            <mxPoint x="554" y="-1030" as="targetPoint" />
          </mxGeometry>
        </mxCell>
        <mxCell id="iuXsz0ok0gPTvOmvIEcN-57" value="" style="endArrow=open;endFill=1;endSize=12;html=1;rounded=0;exitX=0.5;exitY=0;exitDx=0;exitDy=0;" parent="1" source="iuXsz0ok0gPTvOmvIEcN-37" target="iuXsz0ok0gPTvOmvIEcN-32" edge="1">
          <mxGeometry width="160" relative="1" as="geometry">
            <mxPoint x="230" y="-1030" as="sourcePoint" />
            <mxPoint x="420" y="-890" as="targetPoint" />
          </mxGeometry>
        </mxCell>
      </root>
    </mxGraphModel>
  </diagram>
</mxfile>
